<svg width="365" height="31" viewBox="0 0 365 31" fill="none" xmlns="http://www.w3.org/2000/svg">
<path d="M0.846946 0.90909H5.05149L14.9379 25.0568H15.2788L25.1651 0.90909H29.3697V30H26.0742V7.89773H25.7901L16.6992 30H13.5174L4.42649 7.89773H4.1424V30H0.846946V0.90909ZM36.4329 30V0.90909H46.2624C48.5352 0.90909 50.4007 1.29735 51.859 2.07386C53.3174 2.84091 54.3969 3.89678 55.0977 5.24148C55.7984 6.58617 56.1488 8.11553 56.1488 9.82955C56.1488 11.5436 55.7984 13.0634 55.0977 14.3892C54.3969 15.715 53.3221 16.7566 51.8732 17.5142C50.4244 18.2623 48.573 18.6364 46.3192 18.6364H38.3647V15.4545H46.2056C47.7586 15.4545 49.0086 15.2273 49.9556 14.7727C50.9121 14.3182 51.6033 13.6742 52.0295 12.8409C52.4651 11.9981 52.6829 10.9943 52.6829 9.82955C52.6829 8.66477 52.4651 7.64678 52.0295 6.77557C51.5939 5.90436 50.8978 5.23201 49.9414 4.75852C48.985 4.27557 47.7208 4.03409 46.1488 4.03409H39.9556V30H36.4329ZM50.1261 16.9318L57.2852 30H53.1942L46.1488 16.9318H50.1261ZM65.5415 0.90909V30H62.0188V0.90909H65.5415ZM71.0138 4.03409V0.90909H92.832V4.03409H83.6843V30H80.1616V4.03409H71.0138ZM117.36 0.90909H120.882V20.1705C120.882 22.1591 120.414 23.9347 119.476 25.4972C118.548 27.0502 117.237 28.2765 115.542 29.1761C113.846 30.0663 111.858 30.5114 109.576 30.5114C107.293 30.5114 105.305 30.0663 103.61 29.1761C101.915 28.2765 100.598 27.0502 99.6609 25.4972C98.7328 23.9347 98.2688 22.1591 98.2688 20.1705V0.90909H101.792V19.8864C101.792 21.3068 102.104 22.571 102.729 23.679C103.354 24.7775 104.244 25.6439 105.4 26.2784C106.564 26.9034 107.956 27.2159 109.576 27.2159C111.195 27.2159 112.587 26.9034 113.752 26.2784C114.917 25.6439 115.807 24.7775 116.422 23.679C117.047 22.571 117.36 21.3068 117.36 19.8864V0.90909ZM150.985 0.90909V30H147.576L131.724 7.15909H131.44V30H127.917V0.90909H131.326L147.235 23.8068H147.52V0.90909H150.985ZM169.171 0.90909H172.694V21.7045C172.694 23.5606 172.353 25.1373 171.671 26.4347C170.989 27.732 170.028 28.7169 168.787 29.3892C167.547 30.0616 166.084 30.3977 164.398 30.3977C162.807 30.3977 161.391 30.1089 160.151 29.5312C158.91 28.9441 157.935 28.1108 157.225 27.0312C156.515 25.9517 156.159 24.6686 156.159 23.1818H159.625C159.625 24.0057 159.829 24.7254 160.236 25.3409C160.653 25.947 161.221 26.4205 161.941 26.7614C162.66 27.1023 163.48 27.2727 164.398 27.2727C165.411 27.2727 166.273 27.0597 166.983 26.6335C167.694 26.2074 168.233 25.5824 168.603 24.7585C168.981 23.9252 169.171 22.9072 169.171 21.7045V0.90909ZM180.946 30H177.253L187.935 0.90909H191.571L202.253 30H198.56L189.867 5.51136H189.64L180.946 30ZM182.31 18.6364H197.196V21.7614H182.31V18.6364ZM201.316 0.90909H205.35L213.418 14.4886H213.759L221.827 0.90909H225.861L215.35 18.0114V30H211.827V18.0114L201.316 0.90909ZM239.299 13.892V17.017H226.571V13.892H239.299ZM261.561 8.18182C261.39 6.74242 260.699 5.625 259.487 4.82955C258.275 4.03409 256.788 3.63636 255.027 3.63636C253.739 3.63636 252.612 3.8447 251.646 4.26136C250.69 4.67803 249.941 5.25095 249.402 5.98011C248.871 6.70928 248.606 7.53788 248.606 8.46591C248.606 9.24242 248.791 9.91004 249.16 10.4688C249.539 11.018 250.022 11.4773 250.609 11.8466C251.196 12.2064 251.812 12.5047 252.456 12.7415C253.1 12.9687 253.691 13.1534 254.231 13.2955L257.186 14.0909C257.943 14.2898 258.786 14.5644 259.714 14.9148C260.652 15.2652 261.547 15.7434 262.399 16.3494C263.261 16.946 263.971 17.7131 264.529 18.6506C265.088 19.5881 265.368 20.7386 265.368 22.1023C265.368 23.6742 264.956 25.0947 264.132 26.3636C263.317 27.6326 262.124 28.6411 260.552 29.3892C258.99 30.1373 257.091 30.5114 254.856 30.5114C252.773 30.5114 250.969 30.1752 249.444 29.5028C247.929 28.8305 246.736 27.893 245.865 26.6903C245.003 25.4877 244.515 24.0909 244.402 22.5H248.038C248.133 23.5985 248.502 24.5076 249.146 25.2273C249.799 25.9375 250.623 26.4678 251.618 26.8182C252.621 27.1591 253.701 27.3295 254.856 27.3295C256.201 27.3295 257.408 27.1117 258.478 26.6761C259.548 26.2311 260.396 25.6155 261.021 24.8295C261.646 24.0341 261.958 23.1061 261.958 22.0455C261.958 21.0795 261.689 20.2936 261.149 19.6875C260.609 19.0814 259.899 18.589 259.018 18.2102C258.137 17.8314 257.186 17.5 256.163 17.2159L252.583 16.1932C250.311 15.5398 248.511 14.607 247.186 13.3949C245.86 12.1828 245.197 10.5966 245.197 8.63636C245.197 7.00757 245.637 5.58712 246.518 4.375C247.408 3.15341 248.601 2.20644 250.098 1.53409C251.603 0.852272 253.284 0.511363 255.14 0.511363C257.015 0.511363 258.682 0.847537 260.14 1.51989C261.599 2.18276 262.754 3.09185 263.606 4.24716C264.468 5.40246 264.922 6.71401 264.97 8.18182H261.561ZM274.682 0.90909V30H271.159V0.90909H274.682ZM304.814 0.90909V30H301.404L285.552 7.15909H285.268V30H281.745V0.90909H285.154L301.064 23.8068H301.348V0.90909H304.814ZM331.749 10C331.436 9.04356 331.025 8.18655 330.513 7.42898C330.011 6.66193 329.41 6.00852 328.709 5.46875C328.018 4.92898 327.232 4.51704 326.351 4.23295C325.471 3.94886 324.505 3.80682 323.453 3.80682C321.73 3.80682 320.163 4.25189 318.752 5.14205C317.341 6.0322 316.219 7.34375 315.385 9.0767C314.552 10.8097 314.135 12.9356 314.135 15.4545C314.135 17.9735 314.557 20.0994 315.4 21.8324C316.242 23.5653 317.383 24.8769 318.823 25.767C320.262 26.6572 321.882 27.1023 323.681 27.1023C325.347 27.1023 326.815 26.7472 328.084 26.0369C329.363 25.3172 330.357 24.304 331.067 22.9972C331.787 21.6809 332.147 20.1326 332.147 18.3523L333.226 18.5795H324.476V15.4545H335.556V18.5795C335.556 20.9754 335.044 23.0587 334.022 24.8295C333.008 26.6004 331.607 27.9735 329.817 28.9489C328.037 29.9148 325.991 30.3977 323.681 30.3977C321.105 30.3977 318.842 29.7917 316.891 28.5795C314.95 27.3674 313.435 25.6439 312.346 23.4091C311.266 21.1742 310.726 18.5227 310.726 15.4545C310.726 13.1534 311.034 11.0843 311.65 9.24716C312.275 7.40057 313.155 5.8286 314.292 4.53125C315.428 3.2339 316.773 2.23958 318.326 1.5483C319.879 0.857007 321.588 0.511363 323.453 0.511363C324.988 0.511363 326.417 0.74337 327.743 1.20739C329.078 1.66193 330.267 2.3106 331.309 3.15341C332.36 3.98674 333.236 4.98579 333.936 6.15057C334.637 7.30587 335.12 8.58902 335.385 10H331.749ZM341.589 30V0.90909H345.112V13.8636H360.623V0.90909H364.146V30H360.623V16.9886H345.112V30H341.589Z" fill="black"/>
</svg>
